<svg id="Layer_1" data-name="Layer 1" xmlns="http://www.w3.org/2000/svg" xmlns:xlink="http://www.w3.org/1999/xlink" width="1in" height="0.9in" viewBox="0 0 75.2 63.2"><defs><clipPath id="clip-path" transform="translate(-34.4 -40.4)"><rect x="34.4" y="40.4" width="75.2" height="63.22" fill="none"/></clipPath></defs><title>logo-64</title><g clip-path="url(#clip-path)"><path d="M51,54.4c0,4.4-.3,8.4.1,12.6a21.1,21.1,0,0,0,9.8,16.1c3.5,2.3,7.3,4.3,11,6.5h.2c3.7-2.2,7.5-4.2,11-6.5A21.1,21.1,0,0,0,92.9,67c.4-4.2.1-8.2.1-12.6Z" transform="translate(-34.4 -40.4)" fill="#fff"/><path d="M51,54.4c0,4.4-.3,8.4.1,12.6a21.1,21.1,0,0,0,9.8,16.1c3.5,2.3,7.3,4.3,11,6.5h.2c3.7-2.2,7.5-4.2,11-6.5A21.1,21.1,0,0,0,92.9,67c.4-4.2.1-8.2.1-12.6Z" transform="translate(-34.4 -40.4)" fill="none" stroke="#000" stroke-linecap="round" stroke-linejoin="round" stroke-width="1.64"/><path d="M80.1,76.8a1.9,1.9,0,0,0,1.8-1.9A1.8,1.8,0,0,0,80.1,73a1.8,1.8,0,0,0-1.9,1.9,1.9,1.9,0,0,0,1.9,1.9" transform="translate(-34.4 -40.4)"/><path d="M79,68.7V62.5c0-.1,0-.1.1-.2h.4V62H76.1v.2h.3c.1.1.1.1.1.2v7.8a.1.1,0,0,1-.1.1l-.3.2v.2h8.8a.4.4,0,0,1,.1.3h.2V68.3H85c0,.1,0,.3-.1.3s-.1.1-.2.1Z" transform="translate(-34.4 -40.4)"/><path d="M58.8,62v.4a.5.5,0,0,1,.5.5V74.1c0,.3-.2.4-.5.4V75h8.1a10.1,10.1,0,0,0,2.6-.4,6.7,6.7,0,0,0,2-1.2,7.2,7.2,0,0,0,1.4-2,8.8,8.8,0,0,0,.5-2.9,8.4,8.4,0,0,0-.5-2.9,6,6,0,0,0-1.4-2,6.7,6.7,0,0,0-2-1.2,7.1,7.1,0,0,0-2.6-.4Zm3.3,10.8V64.1H66l2,.2,1.4.7a3.4,3.4,0,0,1,.9,1.4,6.2,6.2,0,0,1,.2,2.1,6.8,6.8,0,0,1-.2,2.1,2.5,2.5,0,0,1-.9,1.3,2.3,2.3,0,0,1-1.4.7,6.5,6.5,0,0,1-2,.2Z" transform="translate(-34.4 -40.4)"/><path d="M36.3,42.1c0,7.5-.5,14.3.1,21.4A36.5,36.5,0,0,0,53.1,90.9c6,3.9,12.5,7.3,18.7,11h.4c6.2-3.7,12.7-7.1,18.7-11a36.5,36.5,0,0,0,16.7-27.4c.6-7.1.1-13.9.1-21.4Z" transform="translate(-34.4 -40.4)" fill="#fff"/><path d="M36.3,42.1c0,7.5-.5,14.3.1,21.4A36.5,36.5,0,0,0,53.1,90.9c6,3.9,12.5,7.3,18.7,11h.4c6.2-3.7,12.7-7.1,18.7-11a36.5,36.5,0,0,0,16.7-27.4c.6-7.1.1-13.9.1-21.4Z" transform="translate(-34.4 -40.4)" fill="none" stroke="#3a3a39" stroke-linecap="round" stroke-linejoin="round" stroke-width="3.44"/><path d="M85.7,80.1a3.2,3.2,0,1,0-3.2-3.2,3.2,3.2,0,0,0,3.2,3.2" transform="translate(-34.4 -40.4)" fill="#3a3a39"/><path d="M83.9,66.4V55.9c0-.2.1-.3.1-.4l.7-.2V55H78.9v.3l.7.2c0,.1.1.2.1.4V69c0,.2-.1.3-.1.4h-.7v.4H94c.1,0,.1.2.2.5h.3V65.6h-.3c-.1.4-.1.6-.2.7H83.9Z" transform="translate(-34.4 -40.4)" fill="#3a3a39"/><path d="M49.5,55v.8c.6,0,1,.2,1,.7v19c0,.5-.4.8-1,.8V77H63.4a14.9,14.9,0,0,0,4.3-.6,11.3,11.3,0,0,0,3.5-2.1,10.7,10.7,0,0,0,2.3-3.4,14.4,14.4,0,0,0,.8-4.9,14.8,14.8,0,0,0-.8-4.9,12,12,0,0,0-2.3-3.4,9.4,9.4,0,0,0-3.5-2,12.1,12.1,0,0,0-4.3-.7Zm5.7,18.4V58.6h6.5a18.3,18.3,0,0,1,3.5.3,7.7,7.7,0,0,1,2.4,1.2A5.9,5.9,0,0,1,69,62.4a9.8,9.8,0,0,1,.5,3.6,9.2,9.2,0,0,1-.5,3.6,5.3,5.3,0,0,1-1.4,2.3,5,5,0,0,1-2.4,1.2,18.3,18.3,0,0,1-3.5.3Z" transform="translate(-34.4 -40.4)" fill="#3a3a39"/></g></svg>